const PROGMEM uint8_t song[] = {
    NOTE_D5,
    6,
    NOTE_E5,
    6,
    NOTE_A4,
    4,

    NOTE_E5,
    6,
    NOTE_FS5,
    6,
    NOTE_A5,
    1,
    NOTE_G5,
    1,
    NOTE_FS5,
    2,

    NOTE_D5,
    6,
    NOTE_E5,
    6,
    NOTE_A4,
    8,

    NOTE_A4,
    1,
    NOTE_A4,
    1,
    NOTE_B4,
    1,
    NOTE_D5,
    2,
    NOTE_D5,
    1,

    NOTE_D5,
    6,
    NOTE_E5,
    6,
    NOTE_A4,
    4,

    NOTE_E5,
    6,
    NOTE_FS5,
    6,
    NOTE_A5,
    1,
    NOTE_G5,
    1,
    NOTE_FS5,
    2,

    NOTE_D5,
    6,
    NOTE_E5,
    6,
    NOTE_A4,
    8,

    NOTE_A4,
    1,
    NOTE_A4,
    1,
    NOTE_B4,
    1,
    NOTE_D5,
    2,
    NOTE_D5,
    1,

    NOTE_STOP,
    4,
    NOTE_B4,
    2,
    NOTE_CS5,
    2,
    NOTE_D5,
    2,
    NOTE_D5,
    2,
    NOTE_E5,
    2,
    NOTE_CS5,
    3,

    NOTE_B4,
    1,
    NOTE_A4,
    8,
    NOTE_STOP,
    4,

    NOTE_STOP,
    2,
    NOTE_B4,
    2,
    NOTE_B4,
    2,
    NOTE_CS5,
    2,
    NOTE_D5,
    2,
    NOTE_B4,
    4,
    NOTE_A4,
    2,

    NOTE_A5,
    2,
    NOTE_STOP,
    2,
    NOTE_A5,
    2,
    NOTE_E5,
    6,
    NOTE_STOP,
    4,

    NOTE_B4,
    2,
    NOTE_B4,
    2,
    NOTE_CS5,
    2,
    NOTE_D5,
    2,
    NOTE_B4,
    2,
    NOTE_D5,
    2,
    NOTE_E5,
    2,
    NOTE_STOP,
    2,

    NOTE_STOP,
    2,
    NOTE_CS5,
    2,
    NOTE_B4,
    2,
    NOTE_A4,
    6,
    NOTE_STOP,
    4,

    NOTE_STOP,
    2,
    NOTE_B4,
    2,
    NOTE_B4,
    2,
    NOTE_CS5,
    2,
    NOTE_D5,
    2,
    NOTE_B4,
    2,
    NOTE_A4,
    4,

    NOTE_E5,
    2,
    NOTE_E5,
    2,
    NOTE_E5,
    2,
    NOTE_FS5,
    2,
    NOTE_E5,
    4,
    NOTE_STOP,
    4,

    NOTE_D5,
    8,
    NOTE_E5,
    2,
    NOTE_FS5,
    2,
    NOTE_D5,
    2,

    NOTE_E5,
    2,
    NOTE_E5,
    2,
    NOTE_E5,
    2,
    NOTE_FS5,
    2,
    NOTE_E5,
    4,
    NOTE_A4,
    4,

    NOTE_STOP,
    8,
    NOTE_B4,
    2,
    NOTE_CS5,
    2,
    NOTE_D5,
    2,
    NOTE_B4,
    2,

    NOTE_STOP,
    2,
    NOTE_E5,
    2,
    NOTE_FS5,
    2,
    NOTE_E5,
    6,
    NOTE_A4,
    1,
    NOTE_B4,
    1,
    NOTE_D5,
    1,
    NOTE_B4,
    1,

    NOTE_FS5,
    3,
    NOTE_FS5,
    3,
    NOTE_E5,
    6,
    NOTE_A4,
    1,
    NOTE_B4,
    1,
    NOTE_D5,
    1,
    NOTE_B4,
    1,

    NOTE_E5,
    3,
    NOTE_E5,
    3,
    NOTE_D5,
    3,
    NOTE_CS5,
    1,
    NOTE_B4,
    3,
    NOTE_A4,
    1,
    NOTE_B4,
    1,
    NOTE_D5,
    1,
    NOTE_B4,
    1,

    NOTE_D5,
    4,
    NOTE_E5,
    2,
    NOTE_CS5,
    3,
    NOTE_B4,
    1,
    NOTE_A4,
    2,
    NOTE_A4,
    2,
    NOTE_A4,
    2,

    NOTE_E5,
    4,
    NOTE_D5,
    8,
    NOTE_A4,
    1,
    NOTE_B4,
    1,
    NOTE_D5,
    1,
    NOTE_B4,
    1,

    NOTE_FS5,
    3,
    NOTE_FS5,
    3,
    NOTE_E5,
    6,
    NOTE_A4,
    1,
    NOTE_B4,
    1,
    NOTE_D5,
    1,
    NOTE_B4,
    1,

    NOTE_A5,
    4,
    NOTE_CS5,
    2,
    NOTE_D5,
    3,
    NOTE_CS5,
    1,
    NOTE_B4,
    2,
    NOTE_A4,
    1,
    NOTE_B4,
    1,
    NOTE_D5,
    1,
    NOTE_B4,
    1,

    NOTE_D5,
    4,
    NOTE_E5,
    2,
    NOTE_CS5,
    3,
    NOTE_B4,
    1,
    NOTE_A4,
    4,
    NOTE_A4,
    2,

    NOTE_E5,
    4,
    NOTE_D5,
    8,
    NOTE_STOP,
    4,

    NOTE_STOP,
    2,
    NOTE_B4,
    2,
    NOTE_D5,
    2,
    NOTE_B4,
    2,
    NOTE_D5,
    2,
    NOTE_E5,
    4,
    NOTE_STOP,
    2,

    NOTE_STOP,
    2,
    NOTE_CS5,
    2,
    NOTE_B4,
    2,
    NOTE_A4,
    6,
    NOTE_STOP,
    4,

    NOTE_STOP,
    2,
    NOTE_B4,
    2,
    NOTE_B4,
    2,
    NOTE_CS5,
    2,
    NOTE_D5,
    2,
    NOTE_B4,
    2,
    NOTE_A4,
    4,

    NOTE_STOP,
    2,
    NOTE_A5,
    2,
    NOTE_A5,
    2,
    NOTE_E5,
    2,
    NOTE_FS5,
    2,
    NOTE_E5,
    2,
    NOTE_D5,
    2,

    NOTE_STOP,
    2,
    NOTE_A4,
    2,
    NOTE_B4,
    2,
    NOTE_CS5,
    2,
    NOTE_D5,
    2,
    NOTE_B4,
    2,

    NOTE_STOP,
    2,
    NOTE_CS5,
    2,
    NOTE_B4,
    2,
    NOTE_A4,
    6,
    NOTE_STOP,
    4,

    NOTE_B4,
    2,
    NOTE_B4,
    2,
    NOTE_CS5,
    2,
    NOTE_D5,
    2,
    NOTE_B4,
    2,
    NOTE_A4,
    4,
    NOTE_STOP,
    2,

    NOTE_STOP,
    2,
    NOTE_E5,
    2,
    NOTE_E5,
    2,
    NOTE_FS5,
    4,
    NOTE_E5,
    6,

    NOTE_D5,
    8,
    NOTE_D5,
    2,
    NOTE_E5,
    2,
    NOTE_FS5,
    2,
    NOTE_E5,
    4,

    NOTE_E5,
    2,
    NOTE_E5,
    2,
    NOTE_FS5,
    2,
    NOTE_E5,
    2,
    NOTE_A4,
    2,
    NOTE_A4,
    4,

    NOTE_STOP,
    6,
    NOTE_A4,
    2,
    NOTE_B4,
    2,
    NOTE_CS5,
    2,
    NOTE_D5,
    2,
    NOTE_B4,
    2,

    NOTE_STOP,
    2,
    NOTE_E5,
    2,
    NOTE_FS5,
    2,
    NOTE_E5,
    6,
    NOTE_A4,
    1,
    NOTE_B4,
    1,
    NOTE_D5,
    1,
    NOTE_B4,
    1,

    NOTE_FS5,
    3,
    NOTE_FS5,
    3,
    NOTE_E5,
    6,
    NOTE_A4,
    1,
    NOTE_B4,
    1,
    NOTE_D5,
    1,
    NOTE_B4,
    1,

    NOTE_E5,
    3,
    NOTE_E5,
    3,
    NOTE_D5,
    3,
    NOTE_CS5,
    1,
    NOTE_B4,
    2,
    NOTE_A4,
    1,
    NOTE_B4,
    1,
    NOTE_D5,
    1,
    NOTE_B4,
    1,

    NOTE_D5,
    4,
    NOTE_E5,
    2,
    NOTE_CS5,
    3,
    NOTE_B4,
    1,
    NOTE_A4,
    4,
    NOTE_A4,
    2,

    NOTE_E5,
    4,
    NOTE_D5,
    8,
    NOTE_A4,
    1,
    NOTE_B4,
    1,
    NOTE_D5,
    1,
    NOTE_B4,
    1,

    NOTE_FS5,
    3,
    NOTE_FS5,
    3,
    NOTE_E5,
    6,
    NOTE_A4,
    1,
    NOTE_B4,
    1,
    NOTE_D5,
    1,
    NOTE_B4,
    1,

    NOTE_A5,
    4,
    NOTE_CS5,
    2,
    NOTE_D5,
    3,
    NOTE_CS5,
    1,
    NOTE_B4,
    2,
    NOTE_A4,
    1,
    NOTE_B4,
    1,
    NOTE_D5,
    1,
    NOTE_B4,
    1,

    NOTE_D5,
    4,
    NOTE_E5,
    2,
    NOTE_CS5,
    3,
    NOTE_B4,
    1,
    NOTE_A4,
    4,
    NOTE_A4,
    2,

    NOTE_E5,
    4,
    NOTE_D5,
    8,
    NOTE_A4,
    1,
    NOTE_B4,
    1,
    NOTE_D5,
    1,
    NOTE_B4,
    1,

    NOTE_FS5,
    3,
    NOTE_FS5,
    3,
    NOTE_E5,
    6,
    NOTE_A4,
    1,
    NOTE_B4,
    1,
    NOTE_D5,
    1,
    NOTE_B4,
    1,

    NOTE_A5,
    4,
    NOTE_CS5,
    2,
    NOTE_D5,
    3,
    NOTE_CS5,
    1,
    NOTE_B4,
    2,
    NOTE_A4,
    1,
    NOTE_B4,
    1,
    NOTE_D5,
    1,
    NOTE_B4,
    1,

    NOTE_D5,
    4,
    NOTE_E5,
    2,
    NOTE_CS5,
    3,
    NOTE_B4,
    1,
    NOTE_A4,
    4,
    NOTE_A4,
    2,

    NOTE_E5,
    4,
    NOTE_D5,
    8,
    NOTE_A4,
    1,
    NOTE_B4,
    1,
    NOTE_D5,
    1,
    NOTE_B4,
    1,

    NOTE_FS5,
    3,
    NOTE_FS5,
    3,
    NOTE_E5,
    6,
    NOTE_A4,
    1,
    NOTE_B4,
    1,
    NOTE_D5,
    1,
    NOTE_B4,
    1,

    NOTE_A5,
    4,
    NOTE_CS5,
    2,
    NOTE_D5,
    3,
    NOTE_CS5,
    1,
    NOTE_B4,
    2,
    NOTE_A4,
    1,
    NOTE_B4,
    1,
    NOTE_D5,
    1,
    NOTE_B4,
    1,

    NOTE_D5,
    4,
    NOTE_E5,
    2,
    NOTE_CS5,
    3,
    NOTE_B4,
    1,
    NOTE_A4,
    4,
    NOTE_A4,
    2,

    NOTE_E5,
    4,
    NOTE_D5,
    8,
    NOTE_STOP,
    4};

#define SONGLENGTH 679