// #define T_MIN 17 ms

const Sound song[] PROGMEM = {
{NOTE_C5, 100},
{NOTE_D5, 100},
{NOTE_STOP, 30},
{NOTE_G4, 30},
{NOTE_STOP, 30},
{NOTE_D5, 60},
{NOTE_E5, 60},
{NOTE_G5, 10},
{NOTE_F5, 10},
{NOTE_E5, 10},
{NOTE_C5, 70},
{NOTE_D5, 70},
{NOTE_G4, 140},
{NOTE_STOP, 70},
{NOTE_G4, 10},
{NOTE_G4, 10},
{NOTE_A4, 10},
{NOTE_C5, 20},
{NOTE_C5, 10},
{NOTE_C5, 80},
{NOTE_D5, 70},
{NOTE_G4, 30},
{NOTE_D5, 70},
{NOTE_E5, 70},
{NOTE_G5, 10},
{NOTE_F5, 10},
{NOTE_E5, 10},
{NOTE_C5, 70},
{NOTE_D5, 70},
{NOTE_G4, 60},
{NOTE_B4, 30},
{NOTE_C5, 10},
{NOTE_C5, 130},
{NOTE_C5, 10},
{NOTE_C5, 20},
{NOTE_C5, 10},
{NOTE_STOP, 80},
{NOTE_A4, 20},
{NOTE_B4, 20},
{NOTE_C5, 20},
{NOTE_C5, 20},
{NOTE_D5, 20},
{NOTE_B4, 50},
{NOTE_A4, 10},
{NOTE_G4, 250},
{NOTE_STOP, 170},
{NOTE_A4, 20},
{NOTE_A4, 20},
{NOTE_B4, 20},
{NOTE_C4, 20},
{NOTE_A4, 40},
{NOTE_G4, 20},
{NOTE_G5, 50},
{NOTE_STOP, 40},
{NOTE_G5, 30},
{NOTE_D5, 30},
{NOTE_G5, 30},
{NOTE_D5, 30},
{NOTE_G5, 30},
{NOTE_D5, 50},
{NOTE_A4, 20},
{NOTE_A4, 20},
{NOTE_B4, 20},
{NOTE_C5, 20},
{NOTE_A4, 20},
{NOTE_C5, 20},
{NOTE_D5, 20},
{NOTE_STOP, 60},
{NOTE_B4, 20},
{NOTE_A4, 20},
{NOTE_G4, 200},
{NOTE_STOP, 90},
{NOTE_A4, 20},
{NOTE_A4, 30},
{NOTE_B4, 30},
{NOTE_C5, 30},
{NOTE_A4, 30},
{NOTE_G4, 30},
{NOTE_STOP, 30},
{NOTE_D5, 20},
{NOTE_D5, 20},
{NOTE_E5, 20},
{NOTE_D5, 80},
{NOTE_C5, 150},
{NOTE_D5, 20},
{NOTE_E5, 20},
{NOTE_C5, 20},
{NOTE_D5, 20},
{NOTE_D5, 20},
{NOTE_D5, 20},
{NOTE_D5, 20},
{NOTE_E5, 20},
{NOTE_D5, 70 },
{NOTE_G4, 60},
{NOTE_STOP, 300},
{NOTE_A4, 20},
{NOTE_B4, 20},
{NOTE_C4, 20},
{NOTE_A4, 20},
{NOTE_STOP, 40},
{NOTE_D5, 20},
{NOTE_E5, 20},
{NOTE_D5, 30},
{NOTE_STOP, 60},
{NOTE_G4, 10},
{NOTE_A4, 10},
{NOTE_C5, 10},
{NOTE_A4, 10},
{NOTE_E5, 40},
{NOTE_E5, 10},
{NOTE_STOP, 30},
{NOTE_D5, 150},
{NOTE_G4,10},
{NOTE_A4,10},
{NOTE_C5,10},
{NOTE_A4,10},
{NOTE_D5,40},
{NOTE_D5,20},
{NOTE_C4,50},
{NOTE_B4,10},
{NOTE_A4,20},
{NOTE_G4,10},
{NOTE_A4,10},
{NOTE_C5,10},
{NOTE_A4,10},
{NOTE_C5,50},
{NOTE_D5,20},
{NOTE_B4,40},
{NOTE_A4,10},
{NOTE_G4,70},
{NOTE_G4,20},
{NOTE_D5,50},
{NOTE_C5,160},
{NOTE_STOP,30},
{NOTE_G4,10},
{NOTE_A4,10},
{NOTE_C5,10},
{NOTE_A4,10},
{NOTE_E5,40},
{NOTE_E5,10},
{NOTE_STOP,30},
{NOTE_D5,70},
{NOTE_G4,10},
{NOTE_A4,10},
{NOTE_C5,10},
{NOTE_A4,10},
{NOTE_G5, 60},
{NOTE_B4, 20},
{NOTE_C5, 50},
{NOTE_B4, 10},
{NOTE_A4, 10},
{NOTE_G4, 10},
{NOTE_A4, 10},
{NOTE_C5, 10},
{NOTE_A4, 10},
{NOTE_C5, 70},
{NOTE_D5, 30},
{NOTE_B4, 50},
{NOTE_A4, 10},
{NOTE_G4, 30},
{NOTE_STOP, 30},
{NOTE_G4, 30},
{NOTE_D5, 30},
{NOTE_STOP, 30},
{NOTE_C5, 200}
};


#define SONGLENGTH 164
